<?xml version="1.0" encoding="UTF-8"?>
<svg id="Capa_2" data-name="Capa 2" xmlns="http://www.w3.org/2000/svg" viewBox="0 0 156.83 125.21">
  <defs>
    <style>
      .cls-1 {
        fill: #f6f7ec;
      }
    </style>
  </defs>
  <g id="Letras">
    <g>
      <path class="cls-1" d="M104.27,90.24c-.3.48.11,1.04-.91.71l-4.54-5.66c1.09-1.96,2.3-3.93,3.02-6.07.25-.74,1.2-4.15,1.2-4.69v-4.95l1.83,1.77c4.94,6.63,3.49,12.41-.6,18.88Z"/>
      <path class="cls-1" d="M140.08,104.62c-.95.51-4.4,1.92-5.31,1.92h-4.42c.1-.84.78-.73,1.17-1.09,20.33-19.2,3.08-58.28-14.06-74.24-9.65-8.99-23.78-16.89-37.18-11.41-.18-.21.45-1.16.59-1.42,7.23-12.81,21.49-8.42,31.62-1.74,17.43,11.48,32.17,36.18,35.72,56.65,1.7,9.74,1.85,25.85-8.13,31.34Z"/>
      <path class="cls-1" d="M80.82,108c-5.85,2.8-12.35,4.92-18.73,6.18-12.45,2.45-41.08,3.27-46.24-11.88-1.18-3.45-.77-5.68-.09-9.15.5-.58,2.04,3.11,2.23,3.4l4.83,5.06,1.16.91c12.57,7.74,29.25,7.72,43.13,3.82,3.08-.87,6.07-2.15,9.08-3.24l4.63,4.89Z"/>
      <path class="cls-1" d="M156.59,90.88c-3.48,39.2-37.9,42.64-65.03,21.39-15.41-12.05-26.36-29.52-32.43-48.03,6.91-1.57,14.06-2.25,21.16-1.75,1.53,3.07,2.84,6.44,4.46,9.45,8.59,16.04,29.16,40.25,49.49,38.63,14.55-1.16,19.36-16.59,18.88-29.07-.86-22.43-15.63-49.24-32.62-63.57-9.76-8.22-26.42-17.08-38.08-7.37-7.68,6.38-8.92,16.89-8.57,26.37-6.31-.37-12.51.59-18.74,1.34.52-10.01,3.06-20.71,9.81-28.35,16.52-18.72,42.89-7.61,58.62,5.97,19.97,17.24,35.42,48.17,33.04,74.99Z"/>
      <path class="cls-1" d="M109.18,95.81c-.35.16-2.42-1.55-2.32-2.21.08-.56,2.24-3.53,2.71-4.5,5.58-11.47.62-21.43-10.35-26.53-22.1-10.25-57.4-1.48-75.6,13.81-22.22,18.66-12.85,39.55,14.53,42.72,15.5,1.8,31.69-1.93,45.76-8.18l2.28,1.51c.1.5-.23.67-.61.86-20.59,10.38-56.64,14-75.16-2.06-23.57-20.44-2.54-47.8,18.13-59.29,22.58-12.56,62.48-18.26,82.45,1.68,12.57,12.57,8.71,29.82-1.81,42.19Z"/>
      <path class="cls-1" d="M44.12,24.46c-.17,1.18-1.18,6.47-1.83,7.01-.48.4-5.08,1.26-6.08,1.42-6.38.95-20.09,2.44-23.24-4.81-2.87-6.63,1.87-13.8,9.09-13.64.99.02,2.38.67,3.32-.13.93-.77.13-3.92.31-5.31.88-7.31,10.27-10.56,15.6-5.62.2.19.51.29.69.5,3.67,4.37,2.9,15.15,2.13,20.59Z"/>
    </g>
  </g>
</svg>