<?xml version="1.0" encoding="UTF-8"?>
<svg id="Capa_2" data-name="Capa 2" xmlns="http://www.w3.org/2000/svg" viewBox="0 0 217.19 335.56">
  <defs>
    <style>
      .cls-1 {
        fill: #F6F7EC;
      }
    </style>
  </defs>
  <g id="Capa_1-2" data-name="Capa 1">
    <path class="cls-1" d="M196.52,43.75c-34.28-8.87-32.97,18.33-34.37,43.15-5.37,4.52-7.67,8.53-11.58,13.09-2.3,4.4-3.37,5.18-3.91,5.02-.89-.26-.49-3.14-1.03-7.49-.44-3.53-1.29-6.37-1.97-8.28-.46-1.18-.92-2.37-1.38-3.55-.47-1.15-.95-2.3-1.42-3.45-3.86-7.63-22.15-36.88-17.74-11.17,5.64,31.1-8.52,43.21,5.36,76.94-10.51,30.94-4.99,73.1-15.02,107.35-6.28,33.91-.52-29.12-2.15-38.28-1.7-17-4.33-33.3-7.5-48.14-.9-.59-2.61-6.86-.6-7.01.26-.7.38-1.75,1.16-1.99,13.3-19.01,2.5-49.39,8.89-71.76,9.2-32.98-17.32,3.82-21.08,12.6-6.48,13.44-2.28,28.98-10.27,8.38-2.34-3.42-3.65-6.26-4.97-9.57-2.94-1.99,1.11-4.37.84-6.31,10.56-18.03-.09-47.15,7.45-68.64-5.02-4.19-8.94,4.97-12.46,8.81-3.95,4.36-5.8,9.59-8.62,15.39-7.73,26.78,4.28,33.08-16.58,7.35,4.97-8.6,6.09-25.67-.82-34.9-4.61-6.54-17.37-7.34-22.68-9.7,6.78-12.13-4.11-12.89-7.48-1.97-.15-4.8-4.67-14.26-9.69-6.92-3.83,3.08,6,9.61,3.39,9.45C-1.79,5.41-3.98,18.21,7.71,20.47c-8.27,14.78-3.7,30.58,12.4,35.15,7.41,5.2,23.71-.44,28.07,10.79,3.48,2.8,5.05,7.3,8.27,10.38-.79,1.8-3.53-2.63-5.52-2.1-11.06-10.08-73.55-11.6-29.59,5.52,12.32,4.96,18.42,16.19,30.27,22.13,4.73,2.93,9.67,5.13,15.58,6.1,2,2.28,8.01-1.08,9.21,3.95,7.64,10.98,11.41,26.21,16.36,38,1.21,4.95-10.42-13.06-13.02-12.56-5.74-6.74-15.96-11.09-23.43-14.97-24.64-7.6-41.47-10.64-12.33,10.88,1.17,1.91,3.15,3.36,4.72,4.95.16.81,1.37.92,1.44,1.91,1.25-.06.59,1.95,2.13,2.02,4.38,5.51,8.16,14.48,12.46,19.31,7.87,13.21,19.44,25.08,36.17,30.97,12.76,24.54-2.05,153.67-4.62,67.17-5.89-43.3-34.79-67.54-70.13-80.99-12.97-2.15-.38,8.45,1.54,12.21.64.63,1.27,1.29,1.91,1.99,2.59,2.84,4.67,5.7,6.33,8.4.67,1.15,1.33,2.29,2,3.44,10.8,13.87,13.55,30.97,20.49,45.4,5.56,8.81,13.2,20.81,22.13,28.76,3.72,2.31,6.74,4.45,9.74,6.96,4.1,1.91,2.84,21.39.46,25.23-1.63.75-2.44,4.39-3.58,5.7-1.11,1.85-2.21,3.7-3.32,5.55-4.78,4.38-7.17,9.01-5.77,11.61.23.42.58.85,1.16,1.24,1.44-.67,3.84-2.02,6.07-4.54,2.3-2.62,3.33-5.28,3.8-6.81.64-.56,1.68-1.32,3.1-1.83,1.65-.6,3.04-.56,3.31-.56,2.23-.01,13.24-2.9,28.6-14.99,6.25-4.92,14.62-12.46,22.91-23.33,5.87-3.99,10.93-9,17.92-11.7,3.31-3.78,9.7-3.82,12.25-8.26-8.2-9.85-42.19,1.81-50.6,5.51-2.26,1.49-5.05,3.3-8.08,4.77-1.91,1.93-8.79,7.27-4.48.75,2.83-8.59,4.53-17.06,6.94-24.17-.49-2.67,1.38-2.78,3.22-3.43-.11-1.46,2.53-.43,2.29-1.98,19.66-10.26,25.69-32.26,35.74-48.71,2.78-5.59,31.97-27.85,7.58-21.34-10.96,4.58-24.94,9.58-33.08,19.92-11.4,9.9-11.11,21.27-10.25-2.64,3.75-17.31-4.2-12.97,14.42-20.62,6.01-5.21,16.16-12.51,19.95-20.5,3.18-2.88,3.92-5.49,6.28-8.97,2.4-2.43,5.06-4.38,6.71-7.03,3.42-2.59,8.02-5.72,11.08-8.85,18.81-11.5-17.17-6.33-21.35-2.22-6.76,1.94-12.08,5.54-16.62,9.05-3.27.77-12.61,14.59-12.19,11.2,5.48-15.88,14.03-33.37,24.13-46.04,11.78-16.68,21.23-1.46,37.6-11.33,15.2-6.55,7.34-31.93,13.54-27.98,4.17,3.11,9.78-2.21,5.81-5.48-.84-.55-2.05-1.23-3.62-1.69-2.19-.65-4.19-.61-4.19-.81,0-.07.27-.17,1.41-.28,16.43-6.81.52-18.08-4.04-4.75-1.19-1.39,1.39-9.3-1.41-11.02-4.64-.25-8.39,3.19-7.47,8.85ZM24.29,17.7c12.76.8,24.15,8.07,21.9,24.17-1.22,6.88-2.38,1.86-3.53-1.96-1.27-1.82-3.06-4.31-3.37-6.42-2.09-.51-2.47-3.81-4.12-4.75.19-1.24-1.57-.73-1.43-2.14-1.96-1.38-3.35-2.77-4.73-4.73-1.02-.1-1.82-1.45-2.19-1.95-1.28-.35-2.33-1.25-2.53-2.22ZM16.59,19.87c9.1,5.42,18.58,15.24,21.29,24.55,1.61.39.71,3.11,1.96,3.48.12,3.5,2.14,4.25-1.84,2.76-9.91-7.27-21.51-15.74-21.42-30.79ZM11.07,26.58c3.22,9.25,9.75,19.04,19.15,25.43-7.12,2.36-28.26-9.16-19.15-25.43ZM76.37,37.04c-1.36,14.72,3.98,36.55-1.95,50.13-1.94,6.41-.75-18.73-.04-21.8,2.87-6.18-5.28-6.63-5.52-.79-.7,1.42.23,14.05-2.16,10.94-1.45-15.86,2.81-27.93,9.67-38.47ZM183.91,47.32c16.61,1.77-2.75-.43-14.13,22.65-3.1,8.86-2.84-23.07,14.13-22.65ZM195.15,52.84c8.04-1.54-4.81,11.78-4.18,13.57-5.92,5.84-10.94,12.05-18.41,14.41-3.45,3.54,1.67-8.02,2.63-8.29,3.29-8.89,12.36-16.85,19.97-19.69ZM200.67,60.32c4.67,6.7-2.58,22.28-9.66,22.71-.76,1.67-17.59,4.3-10.85,0,8.8-4.76,16.66-13.85,20.51-22.72ZM19.95,72.75c14.48-.02,26.98,3.37,36.52,12.2,2.66,1.27,4.7,3.48,6.1,5.55-5.09-2.39-8.93-4.78-13.63-7.47-12.08-.85.64,8.4,5.31,8.88,3.83,3.58,8.69,5.25,11.9,8.81,6.16,3.83-5.32,1.19-6.36-.53-14.4-5.55-25.53-21.3-39.84-27.44ZM129.25,74.13c16.41,12.36,10.73,72.94,7.47,30.2-9.89-7.15-2.64,14.56-4.1,19.8-.95,15.3-4.39,10.44-4.74-2.55-2.77-14.89,5.78-31.9,1.37-47.46ZM106.56,87.74c-3.23,18.49,4.18,49.19-5.5,65.91-6.12-4.81,7-34.57-2.68-34.95-7.47,31.92-7.77,6.14-3.48-10.14,3.44-8.04,7.57-14.61,11.66-20.82ZM42.63,124.83c23.53,4.27,46.33,23.05,53.67,47.35-4.02-5.43-11.77-14.37-16.62-19.09-5.03-6.11-11.35-2.86-6.07,2.72,8.4,6.12,13.48,13.94,19.13,21.21,14.24,19.78-14.93-3.94-18.36-10.92-5.6-5.22-9.03-14.73-14.33-21.37-4.46-8.58-11.62-12.81-17.41-19.89ZM172.65,126.21c5.61-.07,2.26.29.57,2.73-4.47,2.2-9.1,9.09-11.8,11.7-4.37,7.23-9.52,14.06-15.62,19.87-1.77.94-15.56,13.3-11.82,5.55,2.4-1.13,3.48-4.89,5.5-6.13,1.28-1.85,2.96-3.62,4.94-4.94,1.73-4.33,11.98-6.59,8.94-11.65-5.06-3.68-14.02,10.33-17.99,12.47,6.75-15.56,22.67-25.11,37.29-29.59ZM164.98,182.68c3.82-.71-13.07,15.96-12.48,19.68-4.89,9.74-10.49,22.09-18.57,30.16-.82.33-10.06,9.93-9.41,6.37,3.57-5.31,5.18-12.09,10.24-16.58.5-3.62,18.09-18.26,4.2-14.95-3.53,5.22-7.89,8.85-10.54,13.75-1.1-.2-3.91,8.48-3.9,4.17,2.44-5.01,3.55-11.13,7.39-15.39,7.16-13.35,18.69-20.88,33.06-27.2ZM33.22,189.31c-1.06-3.22,15.8,6.36,17.14,8.29,12.46,6.87,25.61,21.04,31.53,34.84,5.01,9.86,9.85,21.62,8.89,33.06-2.83-10.36-9.84-19.92-14.45-27.96-2.13-2.15-3.23-4.86-5.45-6.98-3.18-5.36-7.64-.12-4.17,4.16,6.89,6.31,10.48,16.31,15.76,24.08,1.57,5.16,12.08,26.37,2.79,16.36-6.66-3.91-9.78-10.07-14.38-15.01-8.36-12.92-14.37-26.98-18.56-41.7-5.85-10.46-11.19-21.13-19.1-29.15ZM160.83,265.72c6.32-.07-12.88,7.82-12.44,10.24-6.31,2.59-12.65,12.73-17.72,17.2-5.37,6.35-12.94,11.56-19.39,16.31-2.01.2-14.64,8.22-15.77,5.55,2.09-1.43,3.59-3.92,4.96-5.51,4.82-3.68,9.04-9.54,14.97-12.25,1.99-4.6,18.23-7.38,10.25-13-4.72-.32-23.35,17.47-21.9,13.11,11.8-21.01,34.9-29.59,57.04-31.65Z"/>
  </g>
</svg>